<svg enable-background="new 0 0 512 512" height="512" viewBox="0 0 512 512" width="512" xmlns="http://www.w3.org/2000/svg"><g><path d="m256 0c-141.569 0-256 115.664-256 256 0 140.952 115.05 256 256 256 140.951 0 256-115.05 256-256 0-140.949-115.05-256-256-256zm225.49 241h-90.686c-.864-35.958-4.821-71.259-11.622-103.828 20.447-4.511 39.737-10.158 57.425-16.875 25.663 34.07 41.913 75.6 44.883 120.703zm-44.294 149.924c-17.79-6.793-37.214-12.499-57.813-17.052 6.68-32.303 10.566-67.266 11.421-102.882h90.686c-2.948 44.769-18.97 86.012-44.294 119.934zm-166.196 90.566v-90.296c24.746.617 48.887 2.756 71.827 6.313-8.774 31.24-20.451 58.167-34.434 78.349-12.119 2.888-24.612 4.792-37.393 5.634zm-67.393-5.634c-13.983-20.182-25.66-47.108-34.434-78.349 22.94-3.558 47.081-5.696 71.827-6.313v90.296c-12.781-.842-25.274-2.746-37.393-5.634zm-173.097-204.856h90.686c.855 35.606 4.742 70.569 11.421 102.872-20.598 4.553-40.023 10.259-57.813 17.052-25.324-33.922-41.346-75.166-44.294-119.924zm44.883-150.702c17.688 6.717 36.978 12.364 57.425 16.875-6.802 32.569-10.759 67.869-11.622 103.828h-90.686c2.97-45.104 19.22-86.634 44.883-120.703zm165.607-89.788v89.296c-24.648-.615-48.698-2.738-71.557-6.271 8.743-30.833 20.324-57.416 34.164-77.391 12.119-2.888 24.612-4.792 37.393-5.634zm67.393 5.634c13.839 19.975 25.421 46.558 34.164 77.391-22.859 3.533-46.908 5.656-71.557 6.271v-89.296c12.781.842 25.274 2.746 37.393 5.634zm-67.393 204.856h-89.808c.868-34.511 4.712-67.86 11.084-98.248 25.161 4.018 51.635 6.415 78.723 7.062v91.186zm30-91.186c27.088-.647 53.562-3.044 78.723-7.062 6.373 30.388 10.217 63.737 11.084 98.248h-89.807zm101.143-41.787c-5.802-20.902-12.816-40.037-20.819-56.909 23.959 11.192 45.65 26.454 64.161 44.909-13.592 4.648-28.109 8.658-43.342 12zm-232.286 0c-15.234-3.341-29.75-7.351-43.342-11.999 18.511-18.455 40.202-33.717 64.16-44.909-8.002 16.871-15.016 36.006-20.818 56.908zm11.335 162.973h89.808v90.186c-27.16.649-53.704 3.057-78.925 7.094-6.252-30.128-10.024-63.135-10.883-97.28zm119.808 90.186v-90.196h89.808c-.859 34.155-4.631 67.162-10.883 97.289-25.221-4.037-51.764-6.445-78.925-7.093zm-175.227 54.037c13.726-4.729 28.409-8.802 43.824-12.192 5.851 21.27 12.956 40.726 21.08 57.851-24.282-11.343-46.231-26.868-64.904-45.659zm255.55 45.659c8.124-17.125 15.229-36.582 21.08-57.851 15.415 3.391 30.098 7.463 43.824 12.192-18.673 18.791-40.622 34.316-64.904 45.659z"/></g></svg>