<svg id="Calque_1" data-name="Calque 1" xmlns="http://www.w3.org/2000/svg" viewBox="0 0 560.7373 77.7847"><title>Dionysos_black</title><path d="M16.7135,22.3506H40.7243c20.2387,0,34.2221,13.8911,34.2221,32.0141v.1841c0,18.123-13.9834,32.1982-34.2221,32.1982H16.7135ZM40.7243,76.4433c13.5229,0,22.3545-9.1074,22.3545-21.71v-.1841c0-12.6035-8.8316-21.895-22.3545-21.895H28.029v43.79Z" transform="translate(-16.7135 -10.0664)"/><path d="M93.901,22.3506h11.3155V86.747H93.901Z" transform="translate(-16.7135 -10.0664)"/><path d="M124.1681,54.7329v-.1841c0-18.123,13.9834-33.3022,33.7622-33.3022s33.5786,14.9951,33.5786,33.1181v.1841c0,18.123-13.9834,33.3022-33.7626,33.3022S124.1681,72.8559,124.1681,54.7329Zm55.4727,0v-.1841c0-12.5112-9.1069-22.9067-21.8945-22.9067s-21.711,10.2114-21.711,22.7226v.1841c0,12.5112,9.1079,22.9067,21.895,22.9067S179.6408,67.2441,179.6408,54.7329Z" transform="translate(-16.7135 -10.0664)"/><path d="M209.818,22.3506h10.4873l34.4991,44.5253V22.3506h11.1308V86.747H256.46L220.95,40.9336V86.747H209.818Z" transform="translate(-16.7135 -10.0664)"/><path d="M306.0485,61.3564,280.4743,22.3506h13.3388l18.0313,28.5185,18.2148-28.5185h12.9717l-25.5752,38.73V86.747H306.0485Z" transform="translate(-16.7135 -10.0664)"/><path d="M350.026,77.3637l6.8077-8.0957c6.163,5.3355,12.3271,8.3716,20.331,8.3716,6.9912,0,11.4072-3.22,11.4072-8.0957V69.36c0-4.6-2.5761-7.0835-14.5351-9.8432-13.708-3.312-21.4356-7.36-21.4356-19.2271v-.1841c0-11.04,9.2-18.6748,21.9873-18.6748a35.6962,35.6962,0,0,1,23.3672,8.0952l-6.0722,8.5557c-5.7959-4.3237-11.5909-6.6235-17.4786-6.6235-6.624,0-10.4882,3.4038-10.4882,7.6357v.1836c0,4.9678,2.9443,7.1758,15.2714,10.12,13.6153,3.3121,20.6993,8.1875,20.6993,18.8589V68.44c0,12.0513-9.4756,19.2271-22.9991,19.2271A39.6669,39.6669,0,0,1,350.026,77.3637Z" transform="translate(-16.7135 -10.0664)"/><path d="M414.9782,54.7329v-.1841c0-18.123,13.9834-33.3022,33.7627-33.3022S482.319,36.2417,482.319,54.3647v.1841c0,18.123-13.9834,33.3022-33.7627,33.3022S414.9782,72.8559,414.9782,54.7329Zm55.4726,0v-.1841c0-12.5112-9.1074-22.9067-21.8945-22.9067s-21.7109,10.2114-21.7109,22.7226v.1841c0,12.5112,9.1074,22.9067,21.8955,22.9067S470.4508,67.2441,470.4508,54.7329Z" transform="translate(-16.7135 -10.0664)"/><path d="M495.8464,77.3637l6.8076-8.0957c6.1631,5.3355,12.3271,8.3716,20.331,8.3716,6.9912,0,11.4072-3.22,11.4072-8.0957V69.36c0-4.6-2.5761-7.0835-14.5351-9.8432-13.708-3.312-21.4356-7.36-21.4356-19.2271v-.1841c0-11.04,9.2-18.6748,21.9874-18.6748a35.6962,35.6962,0,0,1,23.3671,8.0952l-6.0722,8.5557c-5.7959-4.3237-11.5908-6.6235-17.4785-6.6235-6.6241,0-10.4883,3.4038-10.4883,7.6357v.1836c0,4.9678,2.9443,7.1758,15.2715,10.12,13.6152,3.3121,20.6992,8.1875,20.6992,18.8589V68.44c0,12.0513-9.4756,19.2271-22.999,19.2271A39.6665,39.6665,0,0,1,495.8464,77.3637Z" transform="translate(-16.7135 -10.0664)"/><path d="M559.3542,19.2187V19.167a9.0484,9.0484,0,1,1,18.0966-.0523v.0523a9.0484,9.0484,0,1,1-18.0966.0517Zm17.0566-.0517v-.0523a8.0087,8.0087,0,1,0-16.0166.0523v.0517a8.0087,8.0087,0,1,0,16.0166-.0517Zm-11.7519-4.8887h4.42c2.1845,0,3.7959.9883,3.7959,3.12a2.8937,2.8937,0,0,1-2.08,2.9121l2.3926,3.38h-2.7559l-2.0283-2.9644h-1.4561v2.9644h-2.288Zm4.2636,4.5762c1.04,0,1.6123-.52,1.6123-1.3,0-.8321-.624-1.3-1.6123-1.3h-1.9756v2.6Z" transform="translate(-16.7135 -10.0664)"/></svg>