<svg id="Calque_1" data-name="Calque 1" xmlns="http://www.w3.org/2000/svg" viewBox="0 0 388.6401 76.8984"><title>Origin_black</title><path d="M15.15,54.6406v-.1841c0-17.5708,12.5112-33.21,32.0141-33.21s32.0142,15.6391,32.0142,33.21v.1841c0,17.5713-12.5112,33.21-32.0142,33.21S15.15,72.2119,15.15,54.6406Zm62.0044.0923v-.1841c0-16.4673-12.1431-31.4624-30.0821-31.4624-18.0312,0-29.8984,14.7192-29.8984,31.2783v.1841c0,16.4673,12.1431,31.4624,30.082,31.4624C65.2868,86.0112,77.154,71.292,77.154,54.7329Z" transform="translate(-15.1496 -10.9526)"/><path d="M100.0646,22.3506h26.3106c8.3715,0,14.5356,2.1157,18.4912,6.0712a16.37,16.37,0,0,1,4.6,11.96v.1841c0,10.8555-8.6475,17.2949-21.0669,18.0313l21.435,28.15H147.35L126.0075,58.6884h-23.919V86.747h-2.0239Zm25.2988,34.498c14.9034,0,22.0787-7.0835,22.0787-16.1914v-.1836c0-10.2114-7.9112-16.2832-21.2505-16.2832H102.0885V56.8486Z" transform="translate(-15.1496 -10.9526)"/><path d="M171.9172,22.3506h2.0234V86.747h-2.0234Z" transform="translate(-15.1496 -10.9526)"/><path d="M195.4679,54.7329v-.1841c0-17.2031,12.2349-33.3022,31.83-33.3022,9.8438,0,15.9151,2.9438,22.3545,8.2792l-1.2871,1.564c-5.9805-4.8755-11.96-8.0034-21.1592-8.0034-18.123,0-29.7143,15.4551-29.7143,31.37v.1841c0,16.7432,11.04,31.3706,29.8061,31.3706A35.69,35.69,0,0,0,250.2047,77.18V56.48H226.4694V54.4565h25.7588v23.459a37.0829,37.0829,0,0,1-25.0225,9.9355C207.0583,87.851,195.4679,72.6718,195.4679,54.7329Z" transform="translate(-15.1496 -10.9526)"/><path d="M275.2311,22.3506h2.0235V86.747h-2.0235Z" transform="translate(-15.1496 -10.9526)"/><path d="M301.6335,22.3506h1.748L352.3229,83.435V22.3506h1.9317V86.747h-1.7481L303.5651,25.6621V86.747h-1.9316Z" transform="translate(-15.1496 -10.9526)"/><path d="M380.6237,22.5678v-.0639a11.583,11.583,0,0,1,23.166,0v.0639a11.583,11.583,0,0,1-23.166,0Zm22.59,0v-.0639a11.0073,11.0073,0,1,0-22.0146,0v.0639a11.0073,11.0073,0,0,0,22.0146,0ZM388.0465,16.36h4.8643a4.6261,4.6261,0,0,1,3.3272,1.12,2.8938,2.8938,0,0,1,.8642,2.144v.064c0,1.9838-1.4082,3.1035-3.584,3.36l3.8721,5.0235h-.7686l-3.8076-4.96h-4.1269v4.96h-.6407Zm4.7676,6.1753c2.3037,0,3.68-1.0879,3.68-2.8159v-.064c0-1.6958-1.376-2.72-3.6474-2.72h-4.1592v5.6Z" transform="translate(-15.1496 -10.9526)"/></svg>