<svg id="Calque_1" data-name="Calque 1" xmlns="http://www.w3.org/2000/svg" width="100%" viewBox="0 0 1110 410"><defs><style>.cls-1{fill:none;}</style></defs><path d="M1087.96,206.0583c-19.0465-8.2651-27.5111-22.5308-27.7993-41.8537-.4872-32.638-.6011-65.2818-1.1342-97.919a159.5566,159.5566,0,0,0-2.0659-24.2767c-2.81-16.3879-12.4163-27.4807-28.03-33.3127a22.77,22.77,0,0,1-7.0827-3.7515c2.4432,0,4.8971-.1487,7.3282.0229,25.9033,1.8284,44.9016,19.7945,47.8765,45.6766a265.0641,265.0641,0,0,1,1.68,27.3176c.2927,26.6635.1181,53.3321.3978,79.9959.1206,11.4969,1.1734,23.1047,7.9564,32.8388,3.2822,4.71,8.2579,8.29,12.689,12.1247,1.6511,1.4288,3.9347,2.1263,6.6328,3.5207-1.7,1.0545-2.5571,1.8771-3.5668,2.1679-13.6292,3.9258-19.4791,14.2766-21.6,27.1024a164.0641,164.0641,0,0,0-2.0186,24.7769c-.3336,28.6639.0042,57.3383-.5747,85.9953-.22,10.8931-1.9267,21.8049-6.8429,31.8744-8.1057,16.6023-20.7516,26.8209-39.5974,28.4594-2.6386.23-5.2642.6031-7.9.8668a3.4751,3.4751,0,0,1-2.7934-.9358c1.4614-.6517,2.9275-1.2932,4.3835-1.957,5.1149-2.3315,10.5489-4.1542,15.2763-7.1073,12.3491-7.7142,16.5154-20.1334,16.8544-33.7286.7928-31.792.7568-63.6045,1.5275-95.3973a235.597,235.597,0,0,1,3.1129-34.1756c2.0716-12.0313,8.6722-21.4063,20.6429-26.077C1084.6554,207.7826,1085.9181,207.054,1087.96,206.0583Z"/><path d="M85.53,5.6656c-3.4051,1.3778-6.7811,2.8334-10.22,4.12C59.8776,15.5592,50.8352,27.0167,50.0419,43.0308c-1.4977,30.2348-1.4226,60.5446-2.2827,90.8152-.3773,13.2782-1.038,26.5762-2.3164,39.793-1.2426,12.8472-7.51,25.8692-26.2507,32.8025,3.447,1.8105,6.9,3.3094,10.0236,5.3212,11.3314,7.2992,17.0724,18.2752,17.5046,31.279.8849,26.624.6994,53.2818,1.2254,79.92.2886,14.6144.5348,29.2722,1.8647,43.813,1.8146,19.8387,13.3479,32.832,32.4183,38.2808,1.1907.34,2.3443.81,3.5152,1.22l-.22,1.493c-2.9184-.2671-5.839-.5131-8.7549-.8048-16.9844-1.6987-31.0238-8.72-39.8227-23.7535-6.3538-10.8562-7.8512-23.2041-8.0175-35.5805-.38-28.3129-.3693-56.6314-.8156-84.9429a173.6323,173.6323,0,0,0-2.0468-26.7712c-2.34-13.53-9.1952-24.0812-23.0421-28.7013-.4153-.1385-.7117-.6333-1.3516-1.2312.7952-.6617,1.4057-1.5533,2.2034-1.7769,16.7444-4.6946,22.3246-17.7791,22.8422-33.0075,1.0237-30.12.5848-60.2869,1.357-90.4189a246.0531,246.0531,0,0,1,3.5686-35.6254C35.1892,24.7153,51.184,9.8055,72.3657,5.99c4.1973-.7561,8.4535-1.1847,12.6826-1.7643Z"/><path d="M828.431,196.9909c16.2477,17.0047,31.7559,33.2255,47.2528,49.4569,15.3809,16.11,30.75,32.23,47.0624,49.3289v-93.46c4.9965,0,9.4153-.1056,13.8194.102.75.0353,1.5127,1.3582,2.1158,2.1969.2424.3369.0852.9719.0853,1.4712.0022,42.1483.0021,84.2966.0021,128.1555L844.0957,235.116v93.3987H828.431Z"/><path d="M577.4559,279.6386c-9.851,0-18.8271-.18-27.7905.081-4.0518.1178-5.5907-.9881-5.4343-5.2718.3889-10.6453-1.14-9.0973,8.94-9.1559,13.6286-.0792,27.258-.02,41.4361-.02.8119,22.6885-5.5785,41.87-24.1984,55.1863-29.1253,20.83-70.0831,11.4549-89.13-18.8675-19.7655-31.4668-10.6018-74.5693,23.948-93.9468,26.1829-14.6849,62.9105-8.8141,83.1994,17.3827a44.0454,44.0454,0,0,0-5.7,4.4329,32.3524,32.3524,0,0,0-3.5073,5.2047c-7.4214-5.607-12.9152-10.7274-19.2544-14.38-28.3252-16.3216-65.5959,1.4641-72.1594,33.598-5.0722,24.8327,7.9631,48.8658,28.2479,58.8006,24.399,11.95,54.6848-1.8307,60.5065-27.4412C576.9211,283.6519,577.0817,282.0164,577.4559,279.6386Z"/><path d="M647.4233,328.9374c20.2661-44.2212,40.1938-87.7038,60.4512-131.9058l60.3765,131.9c-5.45,0-10.2318.1877-14.9786-.1368-1.1347-.0775-2.5751-1.6623-3.1563-2.8933q-5.836-12.3612-11.3106-24.8918c-1.2581-2.87-2.8-4.1936-6.2846-4.1422-16.4882.2431-32.9828.1956-49.4731.0364-3.3722-.0326-4.8876,1.1007-6.1659,4.2465-3.4276,8.4355-7.25,16.72-11.2274,24.913a6.2078,6.2078,0,0,1-4.4045,2.7446C656.9628,329.184,652.6212,328.9374,647.4233,328.9374Zm37.9723-46.3115h44.9551l-22.5018-51.0514Z"/><path d="M409.6462,216.9049h-52.35v35.128h50.2119v14.49h-50.23V314.02c1.7816.09,3.5371.2536,5.2928.2563,14.1631.0214,28.3271.0976,42.4887-.0486,3.4074-.0352,4.9216.9165,4.6369,4.5138-.2471,3.1229-.0514,6.2809-.0514,9.8192H341.2682V323.446c0-38.4937.0832-76.9878-.1072-115.4805-.0233-4.7122,1.4114-5.8667,5.9308-5.8115q28.4888.3478,56.9835.0023c4.3382-.0507,6.1637,1.056,5.6314,5.5677A84.2738,84.2738,0,0,0,409.6462,216.9049Z"/><path d="M170.3231,202.263c5.7467,0,10.4015-.1918,15.02.1315a4.9813,4.9813,0,0,1,3.3188,2.776q17.3838,42.8057,34.5511,85.6994c.553,1.3731,1.3571,2.6451,2.3741,4.5972,4.9176-12.1591,9.6448-23.7773,14.3175-35.4175,7.0379-17.5325,14.1243-35.0465,20.9872-52.6474,1.5434-3.9584,3.6229-5.8038,8.0461-5.2378,3.4227.438,6.9462.0874,11.3628.0874-18.3555,44.6023-36.4489,88.5678-54.9052,133.4149C206.943,290.9681,188.8418,247.1213,170.3231,202.263Z"/><path d="M723.0234,114.5865c.0325,15.37-10.0758,26.045-24.6259,26.0069-13.9989-.0366-24.0285-10.69-24.05-25.5447-.0219-15.3931,9.7489-26.1108,23.8533-26.1647C713.1081,88.8269,722.9906,99.06,723.0234,114.5865Zm-9.93-.06c.0238-9.1395-6.2556-16.3973-14.3442-16.5791-7.7569-.1744-14.6489,7.5171-14.7,16.4056-.0564,9.7424,6.0334,16.8262,14.49,16.8544C707.0535,131.2362,713.0678,124.3435,713.0934,114.5269Z"/><path d="M308.2163,138.6831H297.57c-.1828-2.4607-.3616-4.8677-.5806-7.8148a72.0607,72.0607,0,0,0-8.9717.124,4.3,4.3,0,0,0-2.9874,2.6095c-1.0745,5.131-4.4021,5.8893-8.8123,5.3038a49.6793,49.6793,0,0,0-5.9211-.0375c5.7694-11.99,11.2149-23.31,16.6643-34.628q1.0815-2.2463,2.1948-4.477c5.6748-11.36,5.6761-11.3595,19.0606-10.25Zm-11.37-17.87v-12.39l-5.9176,12.39Z"/><path d="M900.38,139.5863V90.1777c10.7249-.0943,22.001-2.49,30.5326,6.8809,7.5278,8.2678,8.7534,18.15,4.6211,28.2513-4.108,10.0414-12.7263,13.865-23.0905,14.2525C908.5009,139.71,904.5483,139.5863,900.38,139.5863Zm9.8164-40.7095v31.88c10.8417.6885,18.182-4.6559,17.3061-17.8111C926.8491,103.1316,921.152,97.9925,910.1965,98.8768Z"/><path d="M607.6587,90.0282c5.3285,0,10.1607-.2307,14.9624.0524,7.7893.4593,12.4484,4.4136,13.8565,11.2621,1.4869,7.2314-1.19,12.8924-7.8217,16.5763a18.5276,18.5276,0,0,0-1.5587,1.1439l12.9655,19.7512c-9.4187,2.0461-10.2862,1.6645-15.0021-6.1012-2.3147-3.8116-4.6792-7.5928-7.7929-12.6383v19.14h-9.609Zm9.6538,8.1267v14.5144c7.2736-.0216,10.0775-2.5161,9.755-8.365C626.7988,99.4311,624.1056,97.703,617.3125,98.1549Z"/><path d="M185.9045,123.1165a102.1317,102.1317,0,0,0-3.0364,10.7528c-.737,4.0073-2.4548,5.8132-6.64,5.1049a38.2556,38.2556,0,0,0-5.8892-.0493c3.51-12.9929,6.9045-25.449,10.2351-37.9224,3.2336-12.1105,3.2046-12.1182,15.6276-12.05,9.7959.0539,15.1225,3.2645,16.2831,9.8147,1.5594,8.8014-3.5065,19.1262-11.3268,21.6694C196.5549,121.9338,191.5431,122.1751,185.9045,123.1165Zm3.1526-11.5508c6.2827,1.227,9.6143-.6421,11.28-5.9424.8762-2.7881,1.2768-5.6089-2.1524-6.4769-3.0029-.76-6.3216-1.0775-6.7563,3.8568C191.1736,105.8974,189.8862,108.7005,189.0571,111.5657Z"/><path d="M436.38,138.6543c-8.498,2.5294-9.2352,2.0124-13.9787-9.7851a55.46,55.46,0,0,1-7.7544-.06c-6.4981-.9095-10.9767.4972-12.452,7.8964-.6984,3.5029-3.2949,3.7527-10.7174,2.1089q6.7647-17.817,13.4754-35.5008c1.4031-3.7029,2.4931-7.5618,4.2878-11.0613a7.86,7.86,0,0,1,4.5578-3.2483c2.2909-.6594,4.4-.13,5.4477,2.7882C424.865,107.44,430.6474,123.0285,436.38,138.6543Zm-16.4062-17.8528-6.4022-17.62c-1.9025,6.4761-3.4829,11.8557-5.1762,17.62Z"/><path d="M835.6323,139.3005V90.2562h24.7833v8.2945H845.2935V109.01h14.4416v8.4546H845.3045V130.82h15.1008v8.4809Z"/><path d="M481.9952,120.83v17.8426c-.7089.4316-.9741.726-1.26.748-8.4346.6483-8.4353.644-8.4355-7.87,0-13.6093,0-27.2186,0-42.1441,7.746.69,15.1912.6706,22.305,2.1964,6.0366,1.2948,9.1131,8.94,7.9413,16.4748-1.2214,7.8544-5.6794,12.0961-13.5386,12.7271C486.89,120.9741,484.7483,120.83,481.9952,120.83Zm.3378-22.6313v14.4782c7.4332.4215,10.6632-1.8809,10.635-7.321C492.94,99.93,489.5873,97.61,482.333,98.1986Z"/><path d="M549.68,120.7974c0,4.6168.0039,8.5731-.001,12.5294-.0078,6.4025-.01,6.4091-6.2346,6.2561-.9633-.0236-1.9244-.1388-3.1613-.2325V90.4585c6.25,0,12.4474-.7377,18.39.1771,8.3965,1.2926,11.9609,7.3931,11.26,17.015-.5655,7.7643-5.4539,12.5534-13.5085,13.126C554.456,120.9166,552.4691,120.7974,549.68,120.7974Zm.3536-22.5654V112.68c7.5981.369,10.2951-1.7227,10.1489-7.58C560.0437,99.5564,557.3174,97.6528,550.0334,98.232Z"/><path d="M756.6364,90.2394c9.6627-.6748,9.6984-.6877,12.7466,7.7562,2.9116,8.0655,5.7381,16.1617,9.0341,25.4642,3.1161-9.2233,5.8988-17.3153,8.5814-25.44,2.7973-8.473,2.7551-8.4869,12.5465-7.7582-2.3215,6.4353-4.5168,12.7366-6.8652,18.98-3.4928,9.2863-7.1651,18.5056-10.5969,27.814-.8275,2.2444-1.7019,4.3122-4.362,3.4132a6.8015,6.8015,0,0,1-3.8147-3.4212c-5.4664-14.1917-10.71-28.4693-15.9993-42.7291C757.4526,93.0936,757.1252,91.8214,756.6364,90.2394Z"/><path d="M249.2945,99.6627c2.4247-10.4474,2.4247-10.4589,12.55-10.4435q10.7463.0162,21.4924.1067c.2926.0021.5832.2645,1.3653.6431l-2.7334,9.5771c-10.792,1.118-10.8161,1.1111-13.8362,11.6342-2.1479,7.484-4.5063,14.9254-6.2124,22.5113-.9434,4.1949-2.7327,5.9124-6.99,5.282a48.4707,48.4707,0,0,0-6.5225-.0487c3.4707-13.01,6.8157-25.5486,10.3147-38.6643Z"/><path d="M238.918,126.129c-1.4721,6.2892-11.4288,14.515-18.076,14.46-6.15-.05-10.8375-5.4327-10.3935-13.8605.7908-15.0124,6.9574-27.4213,20.0423-35.7344a10.0891,10.0891,0,0,1,1.8013-.8156c5.4912-2.1148,11.2353-.9261,13.4784,2.7783,2.27,3.7485,1.5,9.3284-3.404,12.69-4.7616,3.2636-10.6054,4.97-16.0214,7.2472-2.7685,1.1641-6.6639.7964-7.2778,4.8506-.7736,5.1084-1.6959,10.6643,2.3826,14.6231,1.5077,1.4634,5.6025,1.7617,7.6891.798C232.85,131.4518,235.93,128.3708,238.918,126.129Zm-17.9923-15.6075,1.4179,1.01c7.7315-1.453,14.935-3.9841,17.7663-12.19.7347-2.1289.1074-5.78-1.3641-7.3816-2.4568-2.6737-5.9019-1.2077-7.6558,1.4328C227.4211,98.9158,224.2822,104.791,220.9257,110.5215Z"/><path d="M360.3664,115.2591v6.2936H344.5376v-6.2936Z"/><path class="cls-1" d="M685.3956,282.6259l22.4533-51.0514,22.5018,51.0514Z"/><path class="cls-1" d="M713.0934,114.5269c-.0256,9.8166-6.04,16.7093-14.5551,16.6809-8.4561-.0282-14.5459-7.112-14.49-16.8544.0515-8.8885,6.9435-16.58,14.7-16.4056C706.8378,98.13,713.1172,105.3874,713.0934,114.5269Z"/><path class="cls-1" d="M296.8467,120.8132h-5.9176l5.9176-12.39Z"/><path class="cls-1" d="M910.1965,98.8768c10.9555-.8843,16.6526,4.2548,17.3061,14.0691.8759,13.1552-6.4644,18.5-17.3061,17.8111Z"/><path class="cls-1" d="M617.3125,98.1549c6.7931-.4519,9.4863,1.2762,9.755,6.1494.3225,5.8489-2.4814,8.3434-9.755,8.365Z"/><path class="cls-1" d="M189.0571,111.5657c.8291-2.8652,2.1165-5.6683,2.3715-8.5625.4347-4.9343,3.7534-4.6169,6.7563-3.8568,3.4292.868,3.0286,3.6888,2.1524,6.4769C198.6714,110.9236,195.34,112.7927,189.0571,111.5657Z"/><path class="cls-1" d="M419.9734,120.8015H408.395c1.6933-5.7642,3.2737-11.1438,5.1762-17.62Z"/><path class="cls-1" d="M482.333,98.1986c7.2543-.5882,10.607,1.7309,10.635,7.1572.0282,5.44-3.2018,7.7425-10.635,7.321Z"/><path class="cls-1" d="M550.0334,98.232c7.284-.5792,10.01,1.3244,10.1489,6.8684.1462,5.8569-2.5508,7.9486-10.1489,7.58Z"/><path class="cls-1" d="M220.9257,110.5215c3.3565-5.7305,6.4954-11.6057,10.1643-17.1287,1.7539-2.64,5.199-4.1065,7.6558-1.4328,1.4715,1.6013,2.0988,5.2527,1.3641,7.3816-2.8313,8.2055-10.0348,10.7366-17.7663,12.19Z"/></svg>