<svg id="Calque_1" data-name="Calque 1" xmlns="http://www.w3.org/2000/svg" width="100%" viewBox="0 0 1110 410"><defs><style>.cls-1{fill:none;}</style></defs><title>PETAapproved</title><path class="cls-1" d="M1110,410H0V0H1110Zm-22.04-203.9417c-2.0423.9957-3.305,1.7243-4.6472,2.2481-11.9707,4.6707-18.5713,14.0457-20.6429,26.077a235.597,235.597,0,0,0-3.1129,34.1756c-.7707,31.7928-.7347,63.6053-1.5275,95.3973-.339,13.5952-4.5053,26.0144-16.8544,33.7286-4.7274,2.9531-10.1614,4.7758-15.2763,7.1073-1.456.6638-2.9221,1.3053-4.3835,1.957a3.4751,3.4751,0,0,0,2.7934.9358c2.6359-.2637,5.2615-.6373,7.9-.8668,18.8458-1.6385,31.4917-11.8571,39.5974-28.4594,4.9162-10.0695,6.6229-20.9813,6.8429-31.8744.5789-28.657.2411-57.3314.5747-85.9953a164.0641,164.0641,0,0,1,2.0186-24.7769c2.1208-12.8258,7.9707-23.1766,21.6-27.1024,1.01-.2908,1.8664-1.1134,3.5668-2.1679-2.6981-1.3944-4.9817-2.0919-6.6328-3.5207-4.4311-3.8349-9.4068-7.4143-12.689-12.1247-6.783-9.7341-7.8358-21.3419-7.9564-32.8388-.28-26.6638-.1051-53.3324-.3978-79.9959a265.0641,265.0641,0,0,0-1.68-27.3176c-2.9749-25.8821-21.9732-43.8482-47.8765-45.6766-2.4311-.1716-4.885-.0229-7.3282-.0229a22.77,22.77,0,0,0,7.0827,3.7515c15.6137,5.832,25.22,16.9248,28.03,33.3127a159.5566,159.5566,0,0,1,2.0659,24.2767c.5331,32.6372.647,65.281,1.1342,97.919C1060.4493,183.5275,1068.9139,197.7932,1087.96,206.0583ZM85.53,5.6656l-.482-1.44c-4.2291.58-8.4853,1.0082-12.6826,1.7643C51.184,9.8055,35.1892,24.7153,31.6437,45.1547A246.0531,246.0531,0,0,0,28.0751,80.78c-.7722,30.132-.3333,60.2991-1.357,90.4189-.5176,15.2284-6.0978,28.3129-22.8422,33.0075-.7977.2236-1.4082,1.1152-2.2034,1.7769.64.5979.9363,1.0927,1.3516,1.2312,13.8469,4.62,20.7022,15.1714,23.0421,28.7013a173.6323,173.6323,0,0,1,2.0468,26.7712c.4463,28.3115.4352,56.63.8156,84.9429.1663,12.3764,1.6637,24.7243,8.0175,35.5805,8.7989,15.0335,22.8383,22.0548,39.8227,23.7535,2.9159.2917,5.8365.5377,8.7549.8048l.22-1.493c-1.1709-.41-2.3245-.88-3.5152-1.22C63.1583,399.607,51.625,386.6137,49.81,366.775c-1.33-14.5408-1.5761-29.1986-1.8647-43.813-.526-26.6385-.34-53.2963-1.2254-79.92-.4322-13.0038-6.1732-23.98-17.5046-31.279-3.1232-2.0118-6.5766-3.5107-10.0236-5.3212C37.9329,199.5082,44.2,186.4862,45.4428,173.639c1.2784-13.2168,1.9391-26.5148,2.3164-39.793.86-30.2706.785-60.58,2.2827-90.8152C50.8352,27.0167,59.8776,15.5592,75.31,9.7856,78.7492,8.499,82.1252,7.0434,85.53,5.6656ZM828.431,196.9909V328.5147h15.6647V235.116l94.6731,99.1264c0-43.8589,0-86.0072-.0021-128.1555,0-.4993.1571-1.1343-.0853-1.4712-.6031-.8387-1.3657-2.1616-2.1158-2.1969-4.4041-.2076-8.8229-.102-13.8194-.102v93.46c-16.312-17.0985-31.6815-33.2191-47.0624-49.3289C860.1869,230.2164,844.6787,213.9956,828.431,196.9909ZM577.4559,279.6386c-.3742,2.3778-.5348,4.0133-.8961,5.6031-5.8217,25.6105-36.1075,39.391-60.5065,27.4412-20.2848-9.9348-33.32-33.9679-28.2479-58.8006,6.5635-32.1339,43.8342-49.92,72.1594-33.598,6.3392,3.6528,11.833,8.7732,19.2544,14.38a32.3524,32.3524,0,0,1,3.5073-5.2047,44.0454,44.0454,0,0,1,5.7-4.4329c-20.2889-26.1968-57.0165-32.0676-83.1994-17.3827-34.55,19.3775-43.7135,62.48-23.948,93.9468,19.0467,30.3224,60.0045,39.6975,89.13,18.8675,18.62-13.3167,25.01-32.4978,24.1984-55.1863-14.1781,0-27.8075-.06-41.4361.02-10.08.0586-8.5508-1.4894-8.94,9.1559-.1564,4.2837,1.3825,5.39,5.4343,5.2718C558.6288,279.459,567.6049,279.6386,577.4559,279.6386Zm69.9674,49.2988c5.1979,0,9.5395.2466,13.8267-.1291a6.2078,6.2078,0,0,0,4.4045-2.7446c3.9776-8.193,7.8-16.4775,11.2274-24.913,1.2783-3.1458,2.7937-4.2791,6.1659-4.2465,16.49.1592,32.9849.2067,49.4731-.0364,3.4846-.0514,5.0265,1.2719,6.2846,4.1422q5.4878,12.5205,11.3106,24.8918c.5812,1.231,2.0216,2.8158,3.1563,2.8933,4.7468.3245,9.5286.1368,14.9786.1368l-60.3765-131.9C687.6171,241.2336,667.6894,284.7162,647.4233,328.9374ZM409.6462,216.9049a84.2738,84.2738,0,0,1,.06-9.1809c.5323-4.5117-1.2932-5.6184-5.6314-5.5677q-28.4891.3333-56.9835-.0023c-4.5194-.0552-5.9541,1.0993-5.9308,5.8115.19,38.4927.1072,76.9868.1072,115.4805v5.1145H409.645c0-3.5383-.1957-6.6963.0514-9.8192.2847-3.5973-1.2295-4.549-4.6369-4.5138-14.1616.1462-28.3256.07-42.4887.0486-1.7557-.0027-3.5112-.1661-5.2928-.2563V266.5227h50.23v-14.49H357.2962v-35.128ZM170.3231,202.263c18.5187,44.8583,36.62,88.7051,55.0728,133.4037,18.4563-44.8471,36.55-88.8126,54.9052-133.4149-4.4166,0-7.94.3506-11.3628-.0874-4.4232-.566-6.5027,1.2794-8.0461,5.2378-6.8629,17.6009-13.9493,35.1149-20.9872,52.6474-4.6727,11.64-9.4,23.2584-14.3175,35.4175-1.017-1.9521-1.8211-3.2241-2.3741-4.5972q-17.2605-42.8559-34.5511-85.6994a4.9813,4.9813,0,0,0-3.3188-2.776C180.7246,202.0712,176.07,202.263,170.3231,202.263Zm552.7-87.6765c-.0328-15.5267-9.9153-25.76-24.8223-25.7025-14.1044.0539-23.8752,10.7716-23.8533,26.1647.0212,14.855,10.0508,25.5081,24.05,25.5447C712.9476,140.6315,723.0559,129.9563,723.0234,114.5865ZM308.2163,138.6831v-49.17c-13.3845-1.1092-13.3858-1.11-19.0606,10.25q-1.1141,2.23-2.1948,4.477c-5.4494,11.3181-10.8949,22.6381-16.6643,34.628a49.6793,49.6793,0,0,1,5.9211.0375c4.41.5855,7.7378-.1728,8.8123-5.3038a4.3,4.3,0,0,1,2.9874-2.6095,72.0607,72.0607,0,0,1,8.9717-.124c.219,2.9471.3978,5.3541.5806,7.8148Zm592.1638.9032c4.1682,0,8.1208.1235,12.0632-.0239,10.3642-.3875,18.9825-4.2111,23.0905-14.2525,4.1323-10.1009,2.9067-19.9835-4.6211-28.2513-8.5316-9.37-19.8077-6.9752-30.5326-6.8809ZM607.6587,90.0282v49.1859h9.609V120.0746c3.1137,5.0455,5.4782,8.8267,7.7929,12.6383,4.7159,7.7657,5.5834,8.1473,15.0021,6.1012l-12.9655-19.7512a18.5276,18.5276,0,0,1,1.5587-1.1439c6.6316-3.6839,9.3086-9.3449,7.8217-16.5763C635.07,94.4942,630.41,90.54,622.6211,90.0806,617.8194,89.7975,612.9872,90.0282,607.6587,90.0282ZM185.9045,123.1165c5.6386-.9414,10.65-1.1827,15.2538-2.68,7.82-2.5432,12.8862-12.868,11.3268-21.6694-1.1606-6.55-6.4872-9.7608-16.2831-9.8147-12.423-.0683-12.394-.0606-15.6276,12.05-3.3306,12.4734-6.7255,24.93-10.2351,37.9224a38.2556,38.2556,0,0,1,5.8892.0493c4.1848.7083,5.9026-1.0976,6.64-5.1049A102.1317,102.1317,0,0,1,185.9045,123.1165ZM436.38,138.6543c-5.7322-15.6258-11.5146-31.2144-17.1338-46.8616-1.0482-2.9187-3.1568-3.4476-5.4477-2.7882a7.86,7.86,0,0,0-4.5578,3.2483c-1.7947,3.5-2.8847,7.3584-4.2878,11.0613q-6.7147,17.7207-13.4754,35.5008c7.4225,1.6438,10.019,1.394,10.7174-2.1089,1.4753-7.3992,5.9539-8.8059,12.452-7.8964a55.46,55.46,0,0,0,7.7544.06C427.1444,140.6667,427.8816,141.1837,436.38,138.6543Zm399.2527.6462h24.773V130.82H845.3045V117.4643h14.4306V109.01H845.2935V98.5507h15.1221V90.2562H835.6323ZM481.9952,120.83c2.7531,0,4.895.1442,7.0118-.0257,7.8592-.631,12.3172-4.8727,13.5386-12.7271,1.1718-7.5349-1.9047-15.18-7.9413-16.4748-7.1138-1.5258-14.559-1.5063-22.305-2.1964,0,14.9255,0,28.5348,0,42.1441,0,8.5145.0009,8.5188,8.4355,7.87.2861-.022.5513-.3164,1.26-.748V120.83Zm67.6846-.0325c2.7893,0,4.7762.1192,6.7447-.0208,8.0546-.5726,12.943-5.3617,13.5085-13.126.7008-9.6219-2.8636-15.7224-11.26-17.015-5.9426-.9148-12.14-.1771-18.39-.1771V139.35c1.2369.0937,2.198.2089,3.1613.2325,6.2243.153,6.2268.1464,6.2346-6.2561C549.6837,129.3705,549.68,125.4142,549.68,120.7974Zm206.9566-30.558c.4888,1.582.8162,2.8542,1.27,4.0792,5.2892,14.26,10.5329,28.5374,15.9993,42.7291a6.8015,6.8015,0,0,0,3.8147,3.4212c2.66.899,3.5345-1.1688,4.362-3.4132,3.4318-9.3084,7.1041-18.5277,10.5969-27.814,2.3484-6.2438,4.5437-12.5451,6.8652-18.98-9.7914-.7287-9.7492-.7148-12.5465,7.7582-2.6826,8.125-5.4653,16.217-8.5814,25.44-3.296-9.3025-6.1225-17.3987-9.0341-25.4642C766.3348,89.5517,766.2991,89.5646,756.6364,90.2394ZM249.2945,99.6627l9.4277.5979c-3.499,13.1157-6.844,25.6542-10.3147,38.6643a48.4707,48.4707,0,0,1,6.5225.0487c4.2572.63,6.0465-1.0871,6.99-5.282,1.7061-7.5859,4.0645-15.0273,6.2124-22.5113,3.02-10.5231,3.0442-10.5162,13.8362-11.6342l2.7334-9.5771c-.7821-.3786-1.0727-.641-1.3653-.6431q-10.746-.0806-21.4924-.1067C251.7192,89.2038,251.7192,89.2153,249.2945,99.6627ZM238.918,126.129c-2.9877,2.2418-6.0677,5.3228-9.779,7.037-2.0866.9637-6.1814.6654-7.6891-.798-4.0785-3.9588-3.1562-9.5147-2.3826-14.6231.6139-4.0542,4.5093-3.6865,7.2778-4.8506,5.416-2.2773,11.26-3.9836,16.0214-7.2472,4.9044-3.3615,5.6737-8.9414,3.404-12.69-2.2431-3.7044-7.9872-4.8931-13.4784-2.7783a10.0891,10.0891,0,0,0-1.8013.8156c-13.0849,8.3131-19.2515,20.722-20.0423,35.7344-.444,8.4278,4.2434,13.81,10.3935,13.8605C227.4892,140.644,237.4459,132.4182,238.918,126.129Zm121.4484-10.87H344.5376v6.2936h15.8288Z"/><path d="M1087.96,206.0583c-19.0465-8.2651-27.5111-22.5308-27.7993-41.8537-.4872-32.638-.6011-65.2818-1.1342-97.919a159.5566,159.5566,0,0,0-2.0659-24.2767c-2.81-16.3879-12.4163-27.4807-28.03-33.3127a22.77,22.77,0,0,1-7.0827-3.7515c2.4432,0,4.8971-.1487,7.3282.0229,25.9033,1.8284,44.9016,19.7945,47.8765,45.6766a265.0641,265.0641,0,0,1,1.68,27.3176c.2927,26.6635.1181,53.3321.3978,79.9959.1206,11.4969,1.1734,23.1047,7.9564,32.8388,3.2822,4.71,8.2579,8.29,12.689,12.1247,1.6511,1.4288,3.9347,2.1263,6.6328,3.5207-1.7,1.0545-2.5571,1.8771-3.5668,2.1679-13.6292,3.9258-19.4791,14.2766-21.6,27.1024a164.0641,164.0641,0,0,0-2.0186,24.7769c-.3336,28.6639.0042,57.3383-.5747,85.9953-.22,10.8931-1.9267,21.8049-6.8429,31.8744-8.1057,16.6023-20.7516,26.8209-39.5974,28.4594-2.6386.23-5.2642.6031-7.9.8668a3.4751,3.4751,0,0,1-2.7934-.9358c1.4614-.6517,2.9275-1.2932,4.3835-1.957,5.1149-2.3315,10.5489-4.1542,15.2763-7.1073,12.3491-7.7142,16.5154-20.1334,16.8544-33.7286.7928-31.792.7568-63.6045,1.5275-95.3973a235.597,235.597,0,0,1,3.1129-34.1756c2.0716-12.0313,8.6722-21.4063,20.6429-26.077C1084.6554,207.7826,1085.9181,207.054,1087.96,206.0583Z"/><path d="M85.53,5.6656c-3.4051,1.3778-6.7811,2.8334-10.22,4.12C59.8776,15.5592,50.8352,27.0167,50.0419,43.0308c-1.4977,30.2348-1.4226,60.5446-2.2827,90.8152-.3773,13.2782-1.038,26.5762-2.3164,39.793-1.2426,12.8472-7.51,25.8692-26.2507,32.8025,3.447,1.8105,6.9,3.3094,10.0236,5.3212,11.3314,7.2992,17.0724,18.2752,17.5046,31.279.8849,26.624.6994,53.2818,1.2254,79.92.2886,14.6144.5348,29.2722,1.8647,43.813,1.8146,19.8387,13.3479,32.832,32.4183,38.2808,1.1907.34,2.3443.81,3.5152,1.22l-.22,1.493c-2.9184-.2671-5.839-.5131-8.7549-.8048-16.9844-1.6987-31.0238-8.72-39.8227-23.7535-6.3538-10.8562-7.8512-23.2041-8.0175-35.5805-.38-28.3129-.3693-56.6314-.8156-84.9429a173.6323,173.6323,0,0,0-2.0468-26.7712c-2.34-13.53-9.1952-24.0812-23.0421-28.7013-.4153-.1385-.7117-.6333-1.3516-1.2312.7952-.6617,1.4057-1.5533,2.2034-1.7769,16.7444-4.6946,22.3246-17.7791,22.8422-33.0075,1.0237-30.12.5848-60.2869,1.357-90.4189a246.0531,246.0531,0,0,1,3.5686-35.6254C35.1892,24.7153,51.184,9.8055,72.3657,5.99c4.1973-.7561,8.4535-1.1847,12.6826-1.7643Z"/><path d="M828.431,196.9909c16.2477,17.0047,31.7559,33.2255,47.2528,49.4569,15.3809,16.11,30.75,32.23,47.0624,49.3289v-93.46c4.9965,0,9.4153-.1056,13.8194.102.75.0353,1.5127,1.3582,2.1158,2.1969.2424.3369.0852.9719.0853,1.4712.0022,42.1483.0021,84.2966.0021,128.1555L844.0957,235.116v93.3987H828.431Z"/><path d="M577.4559,279.6386c-9.851,0-18.8271-.18-27.7905.081-4.0518.1178-5.5907-.9881-5.4343-5.2718.3889-10.6453-1.14-9.0973,8.94-9.1559,13.6286-.0792,27.258-.02,41.4361-.02.8119,22.6885-5.5785,41.87-24.1984,55.1863-29.1253,20.83-70.0831,11.4549-89.13-18.8675-19.7655-31.4668-10.6018-74.5693,23.948-93.9468,26.1829-14.6849,62.9105-8.8141,83.1994,17.3827a44.0454,44.0454,0,0,0-5.7,4.4329,32.3524,32.3524,0,0,0-3.5073,5.2047c-7.4214-5.607-12.9152-10.7274-19.2544-14.38-28.3252-16.3216-65.5959,1.4641-72.1594,33.598-5.0722,24.8327,7.9631,48.8658,28.2479,58.8006,24.399,11.95,54.6848-1.8307,60.5065-27.4412C576.9211,283.6519,577.0817,282.0164,577.4559,279.6386Z"/><path d="M647.4233,328.9374c20.2661-44.2212,40.1938-87.7038,60.4512-131.9058l60.3765,131.9c-5.45,0-10.2318.1877-14.9786-.1368-1.1347-.0775-2.5751-1.6623-3.1563-2.8933q-5.836-12.3612-11.3106-24.8918c-1.2581-2.87-2.8-4.1936-6.2846-4.1422-16.4882.2431-32.9828.1956-49.4731.0364-3.3722-.0326-4.8876,1.1007-6.1659,4.2465-3.4276,8.4355-7.25,16.72-11.2274,24.913a6.2078,6.2078,0,0,1-4.4045,2.7446C656.9628,329.184,652.6212,328.9374,647.4233,328.9374Zm37.9723-46.3115h44.9551l-22.5018-51.0514Z"/><path d="M409.6462,216.9049h-52.35v35.128h50.2119v14.49h-50.23V314.02c1.7816.09,3.5371.2536,5.2928.2563,14.1631.0214,28.3271.0976,42.4887-.0486,3.4074-.0352,4.9216.9165,4.6369,4.5138-.2471,3.1229-.0514,6.2809-.0514,9.8192H341.2682V323.446c0-38.4937.0832-76.9878-.1072-115.4805-.0233-4.7122,1.4114-5.8667,5.9308-5.8115q28.4888.3478,56.9835.0023c4.3382-.0507,6.1637,1.056,5.6314,5.5677A84.2738,84.2738,0,0,0,409.6462,216.9049Z"/><path d="M170.3231,202.263c5.7467,0,10.4015-.1918,15.02.1315a4.9813,4.9813,0,0,1,3.3188,2.776q17.3838,42.8057,34.5511,85.6994c.553,1.3731,1.3571,2.6451,2.3741,4.5972,4.9176-12.1591,9.6448-23.7773,14.3175-35.4175,7.0379-17.5325,14.1243-35.0465,20.9872-52.6474,1.5434-3.9584,3.6229-5.8038,8.0461-5.2378,3.4227.438,6.9462.0874,11.3628.0874-18.3555,44.6023-36.4489,88.5678-54.9052,133.4149C206.943,290.9681,188.8418,247.1213,170.3231,202.263Z"/><path d="M723.0234,114.5865c.0325,15.37-10.0758,26.045-24.6259,26.0069-13.9989-.0366-24.0285-10.69-24.05-25.5447-.0219-15.3931,9.7489-26.1108,23.8533-26.1647C713.1081,88.8269,722.9906,99.06,723.0234,114.5865Zm-9.93-.06c.0238-9.1395-6.2556-16.3973-14.3442-16.5791-7.7569-.1744-14.6489,7.5171-14.7,16.4056-.0564,9.7424,6.0334,16.8262,14.49,16.8544C707.0535,131.2362,713.0678,124.3435,713.0934,114.5269Z"/><path d="M308.2163,138.6831H297.57c-.1828-2.4607-.3616-4.8677-.5806-7.8148a72.0607,72.0607,0,0,0-8.9717.124,4.3,4.3,0,0,0-2.9874,2.6095c-1.0745,5.131-4.4021,5.8893-8.8123,5.3038a49.6793,49.6793,0,0,0-5.9211-.0375c5.7694-11.99,11.2149-23.31,16.6643-34.628q1.0815-2.2463,2.1948-4.477c5.6748-11.36,5.6761-11.3595,19.0606-10.25Zm-11.37-17.87v-12.39l-5.9176,12.39Z"/><path d="M900.38,139.5863V90.1777c10.7249-.0943,22.001-2.49,30.5326,6.8809,7.5278,8.2678,8.7534,18.15,4.6211,28.2513-4.108,10.0414-12.7263,13.865-23.0905,14.2525C908.5009,139.71,904.5483,139.5863,900.38,139.5863Zm9.8164-40.7095v31.88c10.8417.6885,18.182-4.6559,17.3061-17.8111C926.8491,103.1316,921.152,97.9925,910.1965,98.8768Z"/><path d="M607.6587,90.0282c5.3285,0,10.1607-.2307,14.9624.0524,7.7893.4593,12.4484,4.4136,13.8565,11.2621,1.4869,7.2314-1.19,12.8924-7.8217,16.5763a18.5276,18.5276,0,0,0-1.5587,1.1439l12.9655,19.7512c-9.4187,2.0461-10.2862,1.6645-15.0021-6.1012-2.3147-3.8116-4.6792-7.5928-7.7929-12.6383v19.14h-9.609Zm9.6538,8.1267v14.5144c7.2736-.0216,10.0775-2.5161,9.755-8.365C626.7988,99.4311,624.1056,97.703,617.3125,98.1549Z"/><path d="M185.9045,123.1165a102.1317,102.1317,0,0,0-3.0364,10.7528c-.737,4.0073-2.4548,5.8132-6.64,5.1049a38.2556,38.2556,0,0,0-5.8892-.0493c3.51-12.9929,6.9045-25.449,10.2351-37.9224,3.2336-12.1105,3.2046-12.1182,15.6276-12.05,9.7959.0539,15.1225,3.2645,16.2831,9.8147,1.5594,8.8014-3.5065,19.1262-11.3268,21.6694C196.5549,121.9338,191.5431,122.1751,185.9045,123.1165Zm3.1526-11.5508c6.2827,1.227,9.6143-.6421,11.28-5.9424.8762-2.7881,1.2768-5.6089-2.1524-6.4769-3.0029-.76-6.3216-1.0775-6.7563,3.8568C191.1736,105.8974,189.8862,108.7005,189.0571,111.5657Z"/><path d="M436.38,138.6543c-8.498,2.5294-9.2352,2.0124-13.9787-9.7851a55.46,55.46,0,0,1-7.7544-.06c-6.4981-.9095-10.9767.4972-12.452,7.8964-.6984,3.5029-3.2949,3.7527-10.7174,2.1089q6.7647-17.817,13.4754-35.5008c1.4031-3.7029,2.4931-7.5618,4.2878-11.0613a7.86,7.86,0,0,1,4.5578-3.2483c2.2909-.6594,4.4-.13,5.4477,2.7882C424.865,107.44,430.6474,123.0285,436.38,138.6543Zm-16.4062-17.8528-6.4022-17.62c-1.9025,6.4761-3.4829,11.8557-5.1762,17.62Z"/><path d="M835.6323,139.3005V90.2562h24.7833v8.2945H845.2935V109.01h14.4416v8.4546H845.3045V130.82h15.1008v8.4809Z"/><path d="M481.9952,120.83v17.8426c-.7089.4316-.9741.726-1.26.748-8.4346.6483-8.4353.644-8.4355-7.87,0-13.6093,0-27.2186,0-42.1441,7.746.69,15.1912.6706,22.305,2.1964,6.0366,1.2948,9.1131,8.94,7.9413,16.4748-1.2214,7.8544-5.6794,12.0961-13.5386,12.7271C486.89,120.9741,484.7483,120.83,481.9952,120.83Zm.3378-22.6313v14.4782c7.4332.4215,10.6632-1.8809,10.635-7.321C492.94,99.93,489.5873,97.61,482.333,98.1986Z"/><path d="M549.68,120.7974c0,4.6168.0039,8.5731-.001,12.5294-.0078,6.4025-.01,6.4091-6.2346,6.2561-.9633-.0236-1.9244-.1388-3.1613-.2325V90.4585c6.25,0,12.4474-.7377,18.39.1771,8.3965,1.2926,11.9609,7.3931,11.26,17.015-.5655,7.7643-5.4539,12.5534-13.5085,13.126C554.456,120.9166,552.4691,120.7974,549.68,120.7974Zm.3536-22.5654V112.68c7.5981.369,10.2951-1.7227,10.1489-7.58C560.0437,99.5564,557.3174,97.6528,550.0334,98.232Z"/><path d="M756.6364,90.2394c9.6627-.6748,9.6984-.6877,12.7466,7.7562,2.9116,8.0655,5.7381,16.1617,9.0341,25.4642,3.1161-9.2233,5.8988-17.3153,8.5814-25.44,2.7973-8.473,2.7551-8.4869,12.5465-7.7582-2.3215,6.4353-4.5168,12.7366-6.8652,18.98-3.4928,9.2863-7.1651,18.5056-10.5969,27.814-.8275,2.2444-1.7019,4.3122-4.362,3.4132a6.8015,6.8015,0,0,1-3.8147-3.4212c-5.4664-14.1917-10.71-28.4693-15.9993-42.7291C757.4526,93.0936,757.1252,91.8214,756.6364,90.2394Z"/><path d="M249.2945,99.6627c2.4247-10.4474,2.4247-10.4589,12.55-10.4435q10.7463.0162,21.4924.1067c.2926.0021.5832.2645,1.3653.6431l-2.7334,9.5771c-10.792,1.118-10.8161,1.1111-13.8362,11.6342-2.1479,7.484-4.5063,14.9254-6.2124,22.5113-.9434,4.1949-2.7327,5.9124-6.99,5.282a48.4707,48.4707,0,0,0-6.5225-.0487c3.4707-13.01,6.8157-25.5486,10.3147-38.6643Z"/><path d="M238.918,126.129c-1.4721,6.2892-11.4288,14.515-18.076,14.46-6.15-.05-10.8375-5.4327-10.3935-13.8605.7908-15.0124,6.9574-27.4213,20.0423-35.7344a10.0891,10.0891,0,0,1,1.8013-.8156c5.4912-2.1148,11.2353-.9261,13.4784,2.7783,2.27,3.7485,1.5,9.3284-3.404,12.69-4.7616,3.2636-10.6054,4.97-16.0214,7.2472-2.7685,1.1641-6.6639.7964-7.2778,4.8506-.7736,5.1084-1.6959,10.6643,2.3826,14.6231,1.5077,1.4634,5.6025,1.7617,7.6891.798C232.85,131.4518,235.93,128.3708,238.918,126.129Zm-17.9923-15.6075,1.4179,1.01c7.7315-1.453,14.935-3.9841,17.7663-12.19.7347-2.1289.1074-5.78-1.3641-7.3816-2.4568-2.6737-5.9019-1.2077-7.6558,1.4328C227.4211,98.9158,224.2822,104.791,220.9257,110.5215Z"/><path d="M360.3664,115.2591v6.2936H344.5376v-6.2936Z"/><path class="cls-1" d="M685.3956,282.6259l22.4533-51.0514,22.5018,51.0514Z"/><path class="cls-1" d="M713.0934,114.5269c-.0256,9.8166-6.04,16.7093-14.5551,16.6809-8.4561-.0282-14.5459-7.112-14.49-16.8544.0515-8.8885,6.9435-16.58,14.7-16.4056C706.8378,98.13,713.1172,105.3874,713.0934,114.5269Z"/><path class="cls-1" d="M296.8467,120.8132h-5.9176l5.9176-12.39Z"/><path class="cls-1" d="M910.1965,98.8768c10.9555-.8843,16.6526,4.2548,17.3061,14.0691.8759,13.1552-6.4644,18.5-17.3061,17.8111Z"/><path class="cls-1" d="M617.3125,98.1549c6.7931-.4519,9.4863,1.2762,9.755,6.1494.3225,5.8489-2.4814,8.3434-9.755,8.365Z"/><path class="cls-1" d="M189.0571,111.5657c.8291-2.8652,2.1165-5.6683,2.3715-8.5625.4347-4.9343,3.7534-4.6169,6.7563-3.8568,3.4292.868,3.0286,3.6888,2.1524,6.4769C198.6714,110.9236,195.34,112.7927,189.0571,111.5657Z"/><path class="cls-1" d="M419.9734,120.8015H408.395c1.6933-5.7642,3.2737-11.1438,5.1762-17.62Z"/><path class="cls-1" d="M482.333,98.1986c7.2543-.5882,10.607,1.7309,10.635,7.1572.0282,5.44-3.2018,7.7425-10.635,7.321Z"/><path class="cls-1" d="M550.0334,98.232c7.284-.5792,10.01,1.3244,10.1489,6.8684.1462,5.8569-2.5508,7.9486-10.1489,7.58Z"/><path class="cls-1" d="M220.9257,110.5215c3.3565-5.7305,6.4954-11.6057,10.1643-17.1287,1.7539-2.64,5.199-4.1065,7.6558-1.4328,1.4715,1.6013,2.0988,5.2527,1.3641,7.3816-2.8313,8.2055-10.0348,10.7366-17.7663,12.19Z"/></svg>