<svg xmlns="http://www.w3.org/2000/svg" width="100%" height="45.5" viewBox="0 0 570.187 162.1896">
   <defs>
      <style>.scls-1,.scls-2,.scls-3{stroke-miterlimit:10;}.scls-1{stroke-width:3px;}.scls-2{stroke-width:10px;}</style>
   </defs>
    <path class="scls-1" d="M324.7757,89.5944l-8.2142,15.3021H303.5329l43.1935-79.9118,40.9283,79.9118H374.767l-7.7892-15.3021Zm21.5257-40.0772L330.1571,79.5145H361.88Z" transform="translate(-5.1735 -21.764)"/>
    <path class="scls-2" d="M231.8532,94.0029,198.2008,28.1074h4.5943l28.8281,55.96L257.465,34.4814l25.4971,49.5855,29.0586-55.96h4.5937L282.9621,94.0029,257.465,43.6675Z" transform="translate(-5.1735 -21.764)"/>
    <path class="scls-3" d="M49.7189,182.7217V164.2373c0-6.71-3.477-10.6147-9.2119-10.6147-5.2461,0-9.8213,4.0263-9.8213,10.9809v18.1182H27.6964V164.0542c0-6.4663-3.5385-10.4316-9.09-10.4316s-9.9438,4.88-9.9438,11.1635v17.9356H5.6735V151.6094H8.6628v5.5512c2.0131-3.2329,4.8193-6.2832,10.3706-6.2832a11.1656,11.1656,0,0,1,10.4931,6.71c2.0132-3.4775,5.3682-6.71,11.2246-6.71,7.3819,0,11.9571,5.1851,11.9571,12.9937v18.8506Z" transform="translate(-5.1735 -21.764)"/>
    <path class="scls-3" d="M93.881,182.7217v-5.1856a14.1513,14.1513,0,0,1-11.8965,5.9175c-5.7954,0-12.0176-3.2939-12.0176-9.7607v-.1221c0-6.4663,5.5513-10.1265,13.6036-10.1265a37.4418,37.4418,0,0,1,10.3105,1.3418v-1.3418c0-6.2837-3.8437-9.5166-10.249-9.5166a20.844,20.844,0,0,0-9.7608,2.501l-1.0981-2.623a24.992,24.992,0,0,1,11.0415-2.6846c7.9922,0,12.9941,4.1484,12.9941,12.2012v19.3994Zm.0606-15.19a41.233,41.233,0,0,0-10.5538-1.4033c-6.5888,0-10.2485,2.9282-10.2485,7.26v.1216c0,4.5146,4.27,7.1377,9.0288,7.1377,6.3438,0,11.7735-3.9043,11.7735-9.5777Z" transform="translate(-5.1735 -21.764)"/>
    <path class="scls-3" d="M142.3146,182.7217v-6.9546c-2.6846,4.0874-6.6494,7.6865-12.8115,7.6865-7.5029,0-15.1289-6.04-15.1289-16.166v-.1221c0-10.1269,7.626-16.2881,15.1289-16.2881,6.2226,0,10.249,3.5381,12.8115,7.4424V138.1885h2.9893v44.5332Zm.1826-15.6172a12.9907,12.9907,0,0,0-12.6885-13.36c-6.7714,0-12.2011,4.9414-12.2011,13.2989v.122c0,8.1748,5.6738,13.4209,12.2011,13.4209a13.03,13.03,0,0,0,12.6885-13.36Z" transform="translate(-5.1735 -21.764)"/>
    <path class="scls-3" d="M178.73,180.6475a13.9728,13.9728,0,0,0,10.6758-4.88l2.0742,1.83c-3.1718,3.4165-6.8935,5.8564-12.872,5.8564-8.1739,0-15.251-6.5273-15.251-16.227v-.1221c0-9.0288,6.3447-16.2271,14.7637-16.2271,8.7236,0,14.2744,7.0762,14.2744,16.2881v.1221a7.0547,7.0547,0,0,1-.0606,1.0981H166.5294C167.0783,176.1333,172.6291,180.6475,178.73,180.6475Zm10.4317-14.9463c-.4268-6.2832-4.0254-12.0786-11.1631-12.0786-6.1621,0-10.92,5.185-11.4688,12.0786Z" transform="translate(-5.1735 -21.764)"/>
    <path class="scls-3" d="M237.1652,143.4956v-4.0874h3.7217v4.0874Zm.3662,39.2261V151.6094h2.9893v31.1123Z" transform="translate(-5.1735 -21.764)"/>
    <path class="scls-3" d="M284.8078,182.7217V164.2373c0-6.4053-3.5987-10.6147-9.8819-10.6147-6.1006,0-10.7978,4.6362-10.7978,11.1025v17.9966h-2.9893V151.6094h2.9893v5.7954a12.18,12.18,0,0,1,11.2246-6.5274c7.8691,0,12.4443,5.3682,12.4443,12.8111v19.0332Z" transform="translate(-5.1735 -21.764)"/>
    <path class="scls-3" d="M338.3625,142.9468v17.5083h24.1582v2.9282H338.3625v19.3384h-3.1719V140.0186h30.0752v2.9282Z" transform="translate(-5.1735 -21.764)"/>
    <path class="scls-3" d="M399.8517,154.4155c-7.1982,0-13.4814,5.4292-13.4814,15.5562v12.75H383.381V151.6094H386.37v8.8457c2.4394-5.5518,7.625-9.5777,13.7871-9.334v3.2944Z" transform="translate(-5.1735 -21.764)"/>
    <path class="scls-3" d="M436.4523,182.7217v-5.1856a14.1513,14.1513,0,0,1-11.8965,5.9175c-5.7949,0-12.0176-3.2939-12.0176-9.7607v-.1221c0-6.4663,5.5518-10.1265,13.6036-10.1265a37.4424,37.4424,0,0,1,10.31,1.3418v-1.3418c0-6.2837-3.8437-9.5166-10.249-9.5166a20.844,20.844,0,0,0-9.7608,2.501l-1.0986-2.623a25.0009,25.0009,0,0,1,11.042-2.6846c7.9922,0,12.9941,4.1484,12.9941,12.2012v19.3994Zm.0605-15.19a41.2314,41.2314,0,0,0-10.5537-1.4033c-6.5888,0-10.249,2.9282-10.249,7.26v.1216c0,4.5146,4.27,7.1377,9.0293,7.1377,6.3438,0,11.7734-3.9043,11.7734-9.5777Z" transform="translate(-5.1735 -21.764)"/>
    <path class="scls-3" d="M482.6281,182.7217V164.2373c0-6.4053-3.5987-10.6147-9.8819-10.6147-6.1005,0-10.7978,4.6362-10.7978,11.1025v17.9966h-2.9893V151.6094h2.9893v5.7954a12.18,12.18,0,0,1,11.2246-6.5274c7.8691,0,12.4443,5.3682,12.4443,12.8111v19.0332Z" transform="translate(-5.1735 -21.764)"/>
    <path class="scls-3" d="M518.922,183.4536a16.0119,16.0119,0,0,1-15.8613-16.166v-.1221c0-8.7236,6.9551-16.2881,15.8613-16.2881,5.8565,0,9.5166,2.6841,12.4453,5.7344l-2.1357,2.1958c-2.6836-2.7451-5.7344-5.124-10.37-5.124-7.0772,0-12.5674,5.9175-12.5674,13.36v.122c0,7.5034,5.6738,13.482,12.81,13.482,4.3926,0,7.8086-2.2574,10.4327-5.1856l2.0742,1.8306C528.4386,180.8916,524.6564,183.4536,518.922,183.4536Z" transform="translate(-5.1735 -21.764)"/>
    <path class="scls-3" d="M561.1955,180.6475a13.9728,13.9728,0,0,0,10.6757-4.88l2.0743,1.83c-3.1719,3.4165-6.8936,5.8564-12.8721,5.8564-8.1738,0-15.251-6.5273-15.251-16.227v-.1221c0-9.0288,6.3447-16.2271,14.7637-16.2271,8.7236,0,14.2744,7.0762,14.2744,16.2881v.1221a7.0662,7.0662,0,0,1-.0605,1.0981H548.9953C549.5441,176.1333,555.0949,180.6475,561.1955,180.6475Zm10.4316-14.9463c-.4268-6.2832-4.0254-12.0786-11.1631-12.0786-6.1621,0-10.92,5.185-11.4687,12.0786Z" transform="translate(-5.1735 -21.764)"/>
</svg>