<?xml version="1.0" encoding="utf-8"?>
<svg version="1.1" id="Calque_1" xmlns="http://www.w3.org/2000/svg" xmlns:xlink="http://www.w3.org/1999/xlink" x="0px" y="0px"
	 viewBox="0 0 756 113" style="enable-background:new 0 0 756 113;" xml:space="preserve">
	<g>
		<path stroke-miterlimit="10" d="M253.5,91.9L234,67.3h-17.5v24.6h-13.8V21.4H238c4.5,0,8.6,0.5,12.3,1.6c3.7,1,6.7,2.5,9.3,4.4
			c2.5,1.9,4.5,4.3,5.8,7c1.4,2.8,2,5.9,2,9.3c0,3-0.5,5.6-1.4,7.9c-0.9,2.3-2.2,4.4-3.9,6.1c-1.7,1.8-3.6,3.3-5.9,4.5
			c-2.3,1.2-4.8,2.2-7.6,2.9L270,91.9H253.5z M249,35.6c-2.9-2-6.9-3-12.1-3h-20.3v23.8H237c5,0,9-1.1,11.9-3.2
			c3-2.2,4.4-5.1,4.4-8.7C253.3,40.5,251.9,37.6,249,35.6z"/>
		<path stroke-miterlimit="10" d="M335.7,32.6h-44.8v18.1h39.7v11.2h-39.7v18.8h45.4v11.2h-59.2V21.4h58.6V32.6z"/>
		<path stroke-miterlimit="10" d="M400.6,21.4h13.8v70.5h-11.6l-43.6-50.1v50.1h-13.8V21.4h12.9l42.3,48.7L400.6,21.4L400.6,21.4z"/>
		<path stroke-miterlimit="10" d="M491.4,86.4c-2.4,1.3-4.9,2.5-7.7,3.5c-2.8,1-5.7,1.8-8.9,2.4c-3.2,0.6-6.5,0.9-10,0.9
			c-6.2,0-11.8-0.9-16.9-2.8c-5.1-1.8-9.4-4.4-13-7.7c-3.6-3.3-6.4-7.1-8.3-11.5c-2-4.4-2.9-9.2-2.9-14.4c0-5,1-9.7,3-14.1
			s4.8-8.3,8.4-11.6s7.9-6,13-7.9c5-1.9,10.5-2.9,16.5-2.9c3.5,0,6.6,0.2,9.4,0.7c2.8,0.4,5.4,1.1,7.9,1.9c2.4,0.8,4.7,1.8,6.8,3
			c2.1,1.2,4.2,2.5,6.3,4.1l-8.8,9.4c-1.5-1.1-3.1-2.2-4.6-3.1c-1.6-0.9-3.2-1.7-5-2.4c-1.7-0.6-3.6-1.1-5.7-1.5s-4.4-0.6-6.8-0.6
			c-3.6,0-7,0.7-10.1,2s-5.8,3.1-8.1,5.4c-2.3,2.3-4.1,4.9-5.4,8c-1.3,3-2,6.3-2,9.7c0,3.6,0.6,7,1.9,10.1c1.3,3.1,3.1,5.8,5.5,8
			s5.2,4,8.5,5.3s7,1.9,11,1.9c3.8,0,7.3-0.5,10.6-1.5s6.1-2.3,8.5-3.9V63.3h-20.3V52.5h33.7v29.6C496,83.6,493.8,85,491.4,86.4z"/>
		<path stroke-miterlimit="10" d="M522.4,62.2v29.7h-13.8V21.4h13.8v29.3h38V21.4h13.8v70.5h-13.8V62.2H522.4z"/>
		<path stroke-miterlimit="10" d="M645.7,32.6h-44.8v18.1h39.7v11.2h-39.7v18.8h45.4v11.2h-59.2V21.4h58.6V32.6z"/>
		<path stroke-miterlimit="10" d="M694.5,74.6H694l-24.8-33v50.3h-13.8V21.4h14.8l24.1,33.3l24.1-33.3h14.8v70.5h-13.8V41.4L694.5,74.6z"/>
	</g>
	<path stroke-width="3" stroke-miterlimit="10" d="M141.3,77.8l-6.9,12.9h-11l36.5-67.4l34.5,67.4h-10.9l-6.6-12.9H141.3z M159.4,44l-13.6,25.3h26.8L159.4,44z"
		/>
	<g>
		<path stroke-width="10" stroke-miterlimit="10" d="M63.7,81.5L35.3,25.9h3.9l24.3,47.2l21.8-41.9l21.5,41.9l24.5-47.2h3.9l-28.4,55.6L85.3,39L63.7,81.5z"/>
	</g>
</svg>
